# Blender 5.1.2
# www.blender.org
mtllib limb.mtl
o Cube.001
v -0.934170 -2.000000 -2.065830
v -0.934170 -1.934170 -2.000000
v -1.000000 -1.934170 -2.065830
v -0.934170 1.934170 -2.000000
v -0.934170 2.000000 -2.065830
v -1.000000 1.934170 -2.065830
v -0.934170 -2.000000 -3.934170
v -1.000000 -1.934170 -3.934170
v -0.934170 -1.934170 -4.000000
v -0.934170 2.000000 -3.934170
v -0.934170 1.934170 -4.000000
v -1.000000 1.934170 -3.934170
v 0.934170 -2.000000 -2.065830
v 1.000000 -1.934170 -2.065830
v 0.934170 -1.934170 -2.000000
v 0.934170 2.000000 -2.065830
v 0.934170 1.934170 -2.000000
v 1.000000 1.934170 -2.065830
v 0.934170 -2.000000 -3.934170
v 0.934170 -1.934170 -4.000000
v 1.000000 -1.934170 -3.934170
v 0.934170 2.000000 -3.934170
v 1.000000 1.934170 -3.934170
v 0.934170 1.934170 -4.000000
vn -0.5773 -0.5774 0.5774
vn -0.5773 0.5774 0.5774
vn -0.5773 -0.5774 -0.5774
vn -0.5773 0.5774 -0.5774
vn 0.5773 -0.5774 0.5774
vn 0.5773 0.5774 0.5774
vn 0.5773 -0.5774 -0.5774
vn 0.5773 0.5774 -0.5774
vn -0.7071 -0.7071 -0.0000
vn -0.7071 -0.0000 0.7071
vn -0.7071 0.7071 -0.0000
vn -0.7071 -0.0000 -0.7071
vn -0.0000 -0.7071 -0.7071
vn -0.0000 0.7071 -0.7071
vn 0.7071 -0.0000 -0.7071
vn 0.7071 -0.7071 -0.0000
vn 0.7071 0.7071 -0.0000
vn 0.7071 -0.0000 0.7071
vn -0.0000 -0.7071 0.7071
vn -0.0000 0.7071 0.7071
vn -0.0000 -1.0000 -0.0000
vn -1.0000 -0.0000 -0.0000
vn -0.0000 -0.0000 1.0000
vn -0.0000 1.0000 -0.0000
vn -0.0000 -0.0000 -1.0000
vn 1.0000 -0.0000 -0.0000
vt 0.133229 0.741771
vt 0.133229 0.750000
vt 0.125000 0.741771
vt 0.620886 0.000000
vt 0.625000 0.008229
vt 0.620886 0.008229
vt 0.133229 0.508229
vt 0.125000 0.508229
vt 0.133229 0.500000
vt 0.625000 0.247257
vt 0.620886 0.256172
vt 0.620886 0.241771
vt 0.366771 0.741771
vt 0.378086 0.741771
vt 0.372943 0.754114
vt 0.629114 0.750000
vt 0.620886 0.758229
vt 0.620886 0.743828
vt 0.366771 0.508229
vt 0.372943 0.495886
vt 0.378086 0.508229
vt 0.629114 0.500000
vt 0.620886 0.506172
vt 0.620886 0.491771
vt 0.379114 0.000000
vt 0.379114 0.008229
vt 0.379114 0.258229
vt 0.379114 0.241771
vt 0.625000 0.991771
vt 0.620886 0.991771
vt 0.379114 0.991771
vt 0.866771 0.508229
vt 0.866771 0.741771
s 0
f 1/1/1 2/2/1 3/3/1
f 4/4/2 5/5/2 6/6/2
f 7/7/3 8/8/3 9/9/3
f 10/10/4 11/11/4 12/12/4
f 13/13/5 14/14/5 15/15/5
f 16/16/6 17/17/6 18/18/6
f 19/19/7 20/20/7 21/21/7
f 22/22/8 23/23/8 24/24/8
f 7/7/9 1/1/9 3/3/9 8/8/9
f 2/25/10 4/4/10 6/6/10 3/26/10
f 5/5/11 10/10/11 12/12/11 6/6/11
f 11/11/12 9/27/12 8/28/12 12/12/12
f 19/19/13 7/7/13 9/9/13 20/20/13
f 10/10/14 22/22/14 24/24/14 11/11/14
f 23/23/15 21/21/15 20/20/15 24/24/15
f 13/13/16 19/19/16 21/21/16 14/14/16
f 22/22/17 16/16/17 18/18/17 23/23/17
f 17/17/18 15/15/18 14/14/18 18/18/18
f 1/1/19 13/13/19 15/15/19 2/2/19
f 16/16/20 5/29/20 4/30/20 17/17/20
f 7/7/21 19/19/21 13/13/21 1/1/21
f 3/26/22 6/6/22 12/12/22 8/28/22
f 15/15/23 17/17/23 4/30/23 2/31/23
f 22/22/24 10/32/24 5/33/24 16/16/24
f 9/27/25 11/11/25 24/24/25 20/20/25
f 21/21/26 23/23/26 18/18/26 14/14/26
